<?xml version="1.0" standalone="no"?>
<!DOCTYPE svg PUBLIC "-//W3C//DTD SVG 20010904//EN"
 "http://www.w3.org/TR/2001/REC-SVG-20010904/DTD/svg10.dtd">
<svg version="1.0" xmlns="http://www.w3.org/2000/svg"
 width="750.000000pt" height="1000.000000pt" viewBox="0 0 750.000000 1000.000000"
 preserveAspectRatio="xMidYMid meet">

<g transform="translate(0.000000,1000.000000) scale(0.100000,-0.100000)"
fill="current" stroke="none">
<path d="M3585 8754 c-11 -3 -184 -59 -385 -126 -537 -176 -689 -226 -1410
-458 -1270 -410 -1235 -398 -1258 -423 -36 -39 -43 -80 -32 -202 24 -262 142
-2039 166 -2486 9 -174 13 -338 9 -365 -8 -56 -24 -73 -398 -424 -127 -120
-237 -231 -247 -252 -36 -68 -36 -109 -1 -185 25 -53 56 -92 150 -188 112
-113 685 -764 815 -925 101 -124 156 -178 194 -191 48 -16 135 -7 372 37 333
61 316 59 345 46 21 -10 70 -101 258 -480 128 -257 243 -482 255 -500 44 -61
87 -76 502 -176 629 -151 877 -207 948 -213 80 -6 118 4 504 141 530 188 673
245 706 279 30 32 122 250 307 732 42 110 84 208 93 218 20 22 49 22 220 -8
194 -33 367 -50 424 -41 25 4 64 19 86 34 22 15 206 185 409 378 828 790 883
846 883 896 0 53 -54 115 -426 485 -265 263 -389 393 -401 420 -19 46 -19 71
1 583 38 921 47 1117 52 1148 3 19 9 203 14 410 7 272 14 402 25 467 9 50 19
118 22 153 l5 63 -48 45 c-62 57 -126 87 -349 164 -99 34 -551 197 -1005 362
-1501 546 -1589 576 -1708 583 -42 2 -86 2 -97 -1z m166 -284 c29 -6 244 -80
478 -166 715 -262 1608 -582 1986 -711 184 -63 231 -86 253 -128 24 -45 17
-406 -18 -1050 -16 -291 -36 -654 -45 -805 -27 -491 -35 -781 -25 -844 17
-108 37 -133 345 -451 159 -165 307 -318 329 -340 63 -65 70 -80 56 -114 -6
-16 -93 -107 -193 -202 -100 -95 -234 -222 -297 -284 -305 -295 -526 -499
-556 -511 -58 -24 -164 -14 -468 46 -246 49 -301 39 -350 -59 -20 -38 -206
-527 -342 -900 -21 -56 -64 -104 -111 -123 -21 -9 -123 -44 -226 -77 -103 -33
-261 -89 -350 -125 -236 -93 -227 -91 -367 -90 -114 1 -141 5 -305 47 -99 25
-328 80 -509 122 -182 42 -346 85 -365 95 -55 28 -76 56 -126 175 -57 133
-269 578 -368 770 -99 192 -83 185 -336 156 -108 -12 -241 -31 -296 -43 -193
-40 -238 -36 -323 31 -27 21 -91 90 -142 152 -52 63 -182 213 -290 334 -437
492 -440 496 -440 533 0 37 21 60 213 238 377 349 396 371 423 474 14 56 14
80 -5 323 -12 144 -30 413 -41 597 -10 184 -26 459 -35 610 -14 238 -36 542
-87 1176 -11 142 -10 152 8 189 10 21 30 47 44 57 14 10 180 68 370 129 190
60 579 187 865 280 1038 340 1490 486 1525 492 44 8 66 7 121 -3z"/>
<path d="M1956 5185 c-335 -69 -568 -281 -652 -590 -29 -108 -27 -371 4 -478
103 -357 391 -569 806 -593 174 -11 366 36 520 128 86 50 237 199 285 280 79
135 111 263 111 441 0 315 -157 572 -440 721 -141 74 -238 98 -415 102 -103 2
-172 -1 -219 -11z"/>
<path d="M5073 5185 c-196 -35 -348 -119 -487 -265 -61 -66 -87 -104 -126
-184 -65 -136 -84 -226 -83 -396 1 -102 6 -155 22 -215 77 -294 300 -512 612
-597 72 -19 108 -23 244 -23 134 1 175 4 250 24 389 100 620 377 642 772 10
177 -22 324 -103 481 -51 98 -190 237 -294 295 -188 105 -457 148 -677 108z"/>
<path d="M3640 3694 c-90 -24 -137 -58 -184 -132 -22 -37 -95 -148 -161 -248
-132 -200 -235 -374 -235 -395 0 -29 35 -63 158 -154 153 -115 275 -185 319
-185 29 0 39 8 87 73 29 39 63 80 74 91 29 25 65 15 91 -26 26 -43 80 -94 108
-102 34 -11 90 9 248 86 122 59 149 76 161 102 20 41 12 61 -73 168 -38 48
-140 210 -228 360 -114 193 -175 288 -212 325 -57 58 -66 60 -153 37z"/>
</g>
</svg>
